<svg width="160" height="33" viewBox="0 0 160 33" fill="none" xmlns="http://www.w3.org/2000/svg">
<g clip-path="url(#clip0_258_12)">
<path d="M54.7007 26.9506V6.92603H58.9409V26.9506H54.7007Z" fill="white"/>
<path d="M69.4161 12.1619C70.2274 12.155 71.0384 12.1965 71.8449 12.2862C72.4944 12.3628 73.1374 12.4878 73.7689 12.6603L73.2344 15.6788C72.7098 15.5868 72.1667 15.513 71.6053 15.4574C71.0439 15.4017 70.3422 15.3741 69.5002 15.3745C68.9574 15.3745 68.4894 15.439 68.0963 15.5681C67.719 15.6866 67.3828 15.9123 67.1271 16.2187C66.8744 16.5237 66.6873 16.9345 66.5658 17.4511C66.4443 17.9678 66.3834 18.6047 66.383 19.362C66.383 20.1947 66.4299 20.8918 66.5235 21.4535C66.6171 22.0151 66.781 22.4628 67.0151 22.7966C67.2506 23.1304 67.5853 23.378 67.9698 23.5029C68.3722 23.6414 68.8823 23.7106 69.5002 23.7106C70.4358 23.7106 71.1893 23.6876 71.7608 23.6414C72.3323 23.5952 72.8799 23.535 73.4038 23.4609L74.0776 26.4549C73.7592 26.5106 73.4456 26.5705 73.1369 26.6349C72.8281 26.6992 72.4911 26.7547 72.1258 26.8012C71.7613 26.847 71.3541 26.8849 70.9042 26.9148C70.4542 26.9447 69.9487 26.9585 69.3876 26.9562C67.9646 26.9562 66.7853 26.8224 65.8497 26.5548C64.9141 26.2873 64.1745 25.8533 63.6309 25.2531C63.0881 24.6536 62.7042 23.8643 62.4794 22.8852C62.2547 21.9061 62.1432 20.6967 62.145 19.257C62.145 17.9278 62.2901 16.8113 62.5803 15.9076C62.8705 15.0038 63.3106 14.2745 63.9007 13.7196C64.4903 13.1656 65.2392 12.7682 66.1473 12.5275C67.0554 12.2868 68.1364 12.1668 69.3904 12.1675L69.4161 12.1619Z" fill="white"/>
<path d="M83.1195 12.1619C84.2051 12.1619 85.1599 12.2907 85.9836 12.5485C86.8074 12.8062 87.4814 13.2301 88.0056 13.8201C88.5117 14.3916 88.8441 15.1196 89.0027 16.0041C89.1614 16.8886 89.1755 17.9672 89.0451 19.24L88.9336 20.4838H80.257C80.2759 21.1844 80.3415 21.7649 80.4537 22.2255C80.5659 22.6861 80.7344 23.05 80.9592 23.3172C81.1877 23.5871 81.4913 23.7799 81.8298 23.8702C82.1854 23.9716 82.6253 24.0223 83.1496 24.0223C83.7113 24.0223 84.213 24.0034 84.6544 23.9655C85.0958 23.9277 85.503 23.8817 85.876 23.8276C86.2506 23.7723 86.6063 23.7078 86.9433 23.634C87.2804 23.5602 87.6174 23.4773 87.9544 23.3854L88.4036 26.1217C87.7046 26.3568 86.9916 26.5464 86.269 26.6894C85.427 26.8642 84.388 26.9517 83.1518 26.9517C81.7477 26.9517 80.5823 26.8181 79.6556 26.5509C78.7289 26.2837 77.989 25.8503 77.4357 25.2508C76.8828 24.6532 76.4986 23.8652 76.2831 22.8869C76.0676 21.9086 75.9601 20.7016 75.9605 19.2661C75.9605 17.9388 76.1009 16.8238 76.3818 15.9212C76.6627 15.0185 77.098 14.286 77.6876 13.7236C78.2773 13.1616 79.0262 12.7608 79.9343 12.5212C80.8424 12.2817 81.9141 12.1619 83.1496 12.1619H83.1195ZM83.0637 15.1196C82.6516 15.1128 82.2404 15.164 81.842 15.2717C81.5108 15.3639 81.21 15.5453 80.9715 15.7969C80.7374 16.0455 80.555 16.3911 80.4242 16.8335C80.2934 17.2759 80.2191 17.8379 80.2012 18.5196H85.7055C85.7427 17.9114 85.7192 17.3953 85.6353 16.9714C85.5513 16.5476 85.4248 16.2069 85.2557 15.9496C85.0544 15.64 84.7584 15.4067 84.4136 15.2859C84.0576 15.1573 83.6177 15.0927 83.0938 15.0923L83.0637 15.1196Z" fill="white"/>
<path d="M104.183 26.9506V18.3102H96.4033V26.9506H92.1631V6.92603H96.4033V14.8506H104.183V6.92603H108.422V26.9506H104.183Z" fill="white"/>
<path d="M139.539 12.6416L139.229 15.1696C138.817 15.1514 138.382 15.1284 137.923 15.1003L136.548 15.0169C136.089 14.9889 135.659 14.97 135.256 14.9601C134.853 14.9503 134.502 14.9457 134.203 14.9465C133.623 14.9465 133.15 15.0298 132.785 15.1963C132.42 15.3628 132.238 15.7241 132.238 16.28C132.238 16.6138 132.317 16.8598 132.476 17.018C132.635 17.1762 132.911 17.3013 133.304 17.3933L137.236 18.4492C137.658 18.5566 138.064 18.72 138.444 18.9352C139.23 19.3752 139.818 20.1074 140.087 20.9789C140.246 21.4603 140.325 22.0345 140.325 22.7013C140.325 23.534 140.18 24.2194 139.89 24.7575C139.612 25.2801 139.21 25.7238 138.722 26.0485C138.217 26.38 137.655 26.6112 137.065 26.7297C136.446 26.8593 135.816 26.9243 135.184 26.9239C134.679 26.9239 134.126 26.9008 133.527 26.8546C132.927 26.8085 132.309 26.7483 131.673 26.6741C131.036 26.5984 130.409 26.515 129.791 26.4237C129.173 26.3325 128.602 26.2493 128.078 26.174L128.472 23.4785C129.539 23.6272 130.587 23.7431 131.617 23.8259C132.646 23.9088 133.498 23.9505 134.173 23.9508C134.808 23.9508 135.319 23.8628 135.703 23.6869C136.088 23.5109 136.28 23.1358 136.279 22.5617C136.279 22.1359 136.171 21.821 135.956 21.617C135.74 21.413 135.454 21.2658 135.099 21.1753L131.198 20.1194C130.261 19.8791 129.559 19.4817 129.091 18.9272C128.624 18.3728 128.39 17.5299 128.39 16.3987C128.39 15.5097 128.525 14.7872 128.797 14.2312C129.043 13.7061 129.415 13.2525 129.878 12.9119C130.341 12.5816 130.868 12.3544 131.423 12.2448C132.024 12.1223 132.635 12.0619 133.248 12.0643H133.809C133.997 12.0643 134.193 12.0739 134.399 12.0921L139.539 12.6416ZM148.551 9.51074V12.6115H152.258V15.6419H148.551V22.0042C148.551 22.8569 148.733 23.4219 149.099 23.6993C149.464 23.9768 149.937 24.1157 150.517 24.116C150.854 24.116 151.219 24.1115 151.612 24.1024C152.004 24.0933 152.397 24.0701 152.792 24.0326L153.07 26.5872C152.546 26.6796 151.97 26.7629 151.343 26.837C150.714 26.912 150.081 26.95 149.448 26.9506C148.811 26.9522 148.176 26.8871 147.553 26.7564C146.971 26.639 146.42 26.3976 145.936 26.0479C145.454 25.6876 145.068 25.2098 144.813 24.6582C144.532 24.075 144.392 23.3203 144.392 22.3942V15.6419H141.949V12.8352L143.886 12.7217L144.42 12.6939V9.51074H148.551Z" fill="white"/>
<path d="M118.454 26.9507H114.781C114.024 26.9597 113.284 26.7225 112.669 26.2734C111.851 25.6796 111.356 24.8729 111.177 23.8658C111.141 23.6597 111.122 23.4507 111.122 23.2413V15.8782C111.12 15.0448 111.394 14.2352 111.9 13.5801C112.405 12.925 113.113 12.4626 113.908 12.2676C114.202 12.1971 114.504 12.1627 114.806 12.1654H121.343C121.657 12.1654 121.971 12.1603 122.285 12.17C122.979 12.1864 123.652 12.4129 124.22 12.8205C125.041 13.4041 125.543 14.204 125.734 15.2049C125.776 15.4294 125.796 15.6576 125.795 15.8861V23.2351C125.798 24.057 125.533 24.8566 125.041 25.5082C124.549 26.1598 123.858 26.6263 123.078 26.8343C122.766 26.9169 122.446 26.9578 122.125 26.9558H118.452L118.454 26.9507ZM121.931 19.5592V17.3906C121.932 17.2555 121.917 17.1208 121.885 16.9898C121.794 16.6051 121.58 16.2625 121.275 16.0167C120.971 15.771 120.595 15.6362 120.206 15.6341H116.725C116.641 15.6339 116.558 15.64 116.475 15.6522C116.062 15.7162 115.685 15.9302 115.413 16.2547C115.142 16.5793 114.995 16.9927 114.999 17.4189V21.6994C114.999 21.7992 115.007 21.8989 115.023 21.9975C115.088 22.411 115.296 22.7872 115.61 23.0585C115.923 23.3298 116.321 23.4783 116.732 23.4775H120.206C120.664 23.4767 121.103 23.2911 121.427 22.9612C121.751 22.6313 121.933 22.1841 121.934 21.7176C121.928 20.9966 121.931 20.2768 121.931 19.5592Z" fill="white"/>
<path d="M12.4071 9.06109C12.9556 6.31512 14.2753 4.05906 16.4339 2.33949C18.2876 0.863465 20.4066 0.0811704 22.7591 0.00623362C25.4416 -0.0800572 27.8493 0.729487 29.9454 2.43771C32.0416 4.14592 33.3185 6.37643 33.8535 9.05258H34.1963C37.1734 8.96805 40.0709 10.0383 42.3029 12.0469C44.5349 14.0556 45.9346 16.8526 46.2192 19.8724C46.7804 25.5619 43.2134 30.9245 37.8073 32.518C36.6061 32.8795 35.3553 33.0394 34.1037 32.9915C32.0605 32.9035 30.1255 32.3903 28.3481 31.3372C27.4123 30.7831 26.6036 30.061 25.8362 29.2878C24.5259 27.9667 23.4034 26.4924 22.3969 24.9244C21.6445 23.7532 20.9155 22.5673 20.1675 21.3933C19.3064 20.0422 18.3768 18.7416 17.2939 17.5636C16.8564 17.0878 16.4021 16.6257 15.9217 16.1948C15.0551 15.4055 14.0043 14.8557 12.8697 14.5979C11.9919 14.3975 11.1197 14.4321 10.2502 14.6479C8.96937 14.9609 7.81369 15.6669 6.93929 16.6703C6.06489 17.6738 5.5139 18.9264 5.36075 20.259C5.2076 21.5917 5.45966 22.9401 6.08289 24.1221C6.70612 25.3041 7.67049 26.2629 8.84574 26.8688C9.60623 27.2646 10.4376 27.4993 11.2897 27.5586C12.6585 27.6607 13.927 27.3315 15.103 26.6213C15.3426 26.4765 15.5611 26.2949 15.803 26.1541C16.183 25.931 16.6114 25.8077 17.0498 25.7952C17.4882 25.7826 17.9227 25.8814 18.3144 26.0824C18.706 26.2835 19.0424 26.5806 19.2933 26.947C19.5442 27.3133 19.7017 27.7375 19.7517 28.1813C19.8688 29.2094 19.5093 30.0593 18.6989 30.6741C17.2864 31.7441 15.6502 32.4671 13.9181 32.7865C12.682 33.0281 11.4155 33.0633 10.1683 32.891C8.11838 32.6072 6.17828 31.7774 4.54402 30.4854C2.90976 29.1933 1.63922 27.4848 0.860765 25.5324C0.404371 24.4067 0.125604 23.2146 0.0347902 22.0002C-0.205422 18.573 0.779951 15.5579 3.02547 12.9947C4.76102 11.0112 6.94299 9.78889 9.49783 9.26206C10.3822 9.07775 11.2861 9.00927 12.1875 9.05826C12.2555 9.06393 12.3235 9.06109 12.4071 9.06109ZM17.5558 10.6348L17.7409 10.7438C18.398 11.1179 19.0159 11.5594 19.5851 12.0614C20.4066 12.804 21.1328 13.6362 21.8144 14.5088C22.7619 15.7174 23.6191 16.9925 24.4607 18.2789C25.3842 19.6919 26.2999 21.1095 27.2357 22.5134C27.8961 23.5046 28.605 24.4612 29.4154 25.332C30.9102 26.9386 32.7344 27.7101 34.918 27.5631C36.4802 27.4639 37.9534 26.7881 39.0618 25.6623C40.1702 24.5366 40.8379 23.0379 40.9398 21.447C41.0418 19.856 40.571 18.2816 39.6157 17.0187C38.6603 15.7557 37.2859 14.8907 35.7496 14.5854C35.0041 14.4315 34.237 14.4197 33.4873 14.5508C33.4628 14.6161 33.4394 14.6808 33.4138 14.7449C33.285 15.0742 33.1674 15.4086 33.0236 15.731C32.498 16.9181 31.7657 17.9985 30.8623 18.9198C29.5993 20.2108 27.4859 19.8787 26.6415 18.2726C26.102 17.2474 26.2815 15.9825 27.074 15.1196C27.3226 14.8553 27.5508 14.5719 27.7568 14.272C28.4465 13.2232 28.7739 11.9703 28.6872 10.7109C28.6005 9.4516 28.1048 8.25749 27.2781 7.31692C26.4514 6.37635 25.3408 5.74285 24.1216 5.51633C22.9023 5.28981 21.6437 5.48316 20.5443 6.06589C19.9297 6.38786 19.3811 6.82642 18.928 7.35799C18.5059 7.84917 18.1706 8.4112 17.937 9.01908C17.7466 9.54006 17.6186 10.0825 17.5558 10.6348Z" fill="url(#paint0_linear_258_12)"/>
</g>
<defs>
<linearGradient id="paint0_linear_258_12" x1="9.12553" y1="6.75225" x2="37.6534" y2="34.7593" gradientUnits="userSpaceOnUse">
<stop offset="0.05" stop-color="#09C6F9"/>
<stop offset="1" stop-color="#045DE9"/>
</linearGradient>
<clipPath id="clip0_258_12">
<rect width="160" height="33" fill="white"/>
</clipPath>
</defs>
</svg>
